<mxfile>
    <diagram name="Page-1" id="03018318-947c-dd8e-b7a3-06fadd420f32">
        <mxGraphModel dx="1517" dy="780" grid="1" gridSize="10" guides="1" tooltips="1" connect="1" arrows="1" fold="1" page="1" pageScale="1" pageWidth="1100" pageHeight="850" background="none" math="0" shadow="0">
            <root>
                <mxCell id="0"/>
                <mxCell id="1" parent="0"/>
                <mxCell id="XFyouCYtFSHECsHT9rdQ-2" value="" style="swimlane;" parent="1" vertex="1">
                    <mxGeometry x="80" y="65" width="225" height="360" as="geometry">
                        <mxRectangle x="70" y="80" width="50" height="40" as="alternateBounds"/>
                    </mxGeometry>
                </mxCell>
                <mxCell id="XFyouCYtFSHECsHT9rdQ-3" value="GiveAway" style="text;html=1;strokeColor=none;fillColor=none;align=center;verticalAlign=middle;whiteSpace=wrap;rounded=0;" parent="XFyouCYtFSHECsHT9rdQ-2" vertex="1">
                    <mxGeometry x="13.5" width="61" height="20" as="geometry"/>
                </mxCell>
                <mxCell id="XFyouCYtFSHECsHT9rdQ-9" value="" style="whiteSpace=wrap;html=1;aspect=fixed;" parent="XFyouCYtFSHECsHT9rdQ-2" vertex="1">
                    <mxGeometry x="9" y="125" width="60" height="60" as="geometry"/>
                </mxCell>
                <mxCell id="XFyouCYtFSHECsHT9rdQ-17" value="" style="outlineConnect=0;fontColor=#232F3E;gradientColor=none;fillColor=#D05C17;strokeColor=none;dashed=0;verticalLabelPosition=bottom;verticalAlign=top;align=center;html=1;fontSize=12;fontStyle=0;aspect=fixed;pointerEvents=1;shape=mxgraph.aws4.container_registry_image;" parent="XFyouCYtFSHECsHT9rdQ-2" vertex="1">
                    <mxGeometry x="24.5" y="140" width="30" height="30" as="geometry"/>
                </mxCell>
                <mxCell id="XFyouCYtFSHECsHT9rdQ-22" value="Electronics" style="text;html=1;align=center;verticalAlign=middle;resizable=0;points=[];autosize=1;strokeColor=none;" parent="XFyouCYtFSHECsHT9rdQ-2" vertex="1">
                    <mxGeometry x="4.5" y="200" width="70" height="20" as="geometry"/>
                </mxCell>
                <mxCell id="XFyouCYtFSHECsHT9rdQ-23" value="" style="whiteSpace=wrap;html=1;aspect=fixed;" parent="XFyouCYtFSHECsHT9rdQ-2" vertex="1">
                    <mxGeometry x="85" y="125" width="60" height="60" as="geometry"/>
                </mxCell>
                <mxCell id="XFyouCYtFSHECsHT9rdQ-24" value="" style="outlineConnect=0;fontColor=#232F3E;gradientColor=none;fillColor=#D05C17;strokeColor=none;dashed=0;verticalLabelPosition=bottom;verticalAlign=top;align=center;html=1;fontSize=12;fontStyle=0;aspect=fixed;pointerEvents=1;shape=mxgraph.aws4.container_registry_image;" parent="XFyouCYtFSHECsHT9rdQ-2" vertex="1">
                    <mxGeometry x="97.5" y="140" width="30" height="30" as="geometry"/>
                </mxCell>
                <mxCell id="XFyouCYtFSHECsHT9rdQ-25" value="Furnitures" style="text;html=1;align=center;verticalAlign=middle;resizable=0;points=[];autosize=1;strokeColor=none;" parent="XFyouCYtFSHECsHT9rdQ-2" vertex="1">
                    <mxGeometry x="80" y="200" width="70" height="20" as="geometry"/>
                </mxCell>
                <mxCell id="XFyouCYtFSHECsHT9rdQ-29" value="" style="whiteSpace=wrap;html=1;aspect=fixed;" parent="XFyouCYtFSHECsHT9rdQ-2" vertex="1">
                    <mxGeometry x="159.5" y="125" width="60" height="60" as="geometry"/>
                </mxCell>
                <mxCell id="XFyouCYtFSHECsHT9rdQ-30" value="" style="outlineConnect=0;fontColor=#232F3E;gradientColor=none;fillColor=#D05C17;strokeColor=none;dashed=0;verticalLabelPosition=bottom;verticalAlign=top;align=center;html=1;fontSize=12;fontStyle=0;aspect=fixed;pointerEvents=1;shape=mxgraph.aws4.container_registry_image;" parent="XFyouCYtFSHECsHT9rdQ-2" vertex="1">
                    <mxGeometry x="177.5" y="140" width="30" height="30" as="geometry"/>
                </mxCell>
                <mxCell id="XFyouCYtFSHECsHT9rdQ-31" value="Appliances" style="text;html=1;align=center;verticalAlign=middle;resizable=0;points=[];autosize=1;strokeColor=none;" parent="XFyouCYtFSHECsHT9rdQ-2" vertex="1">
                    <mxGeometry x="154.5" y="200" width="70" height="20" as="geometry"/>
                </mxCell>
                <mxCell id="XFyouCYtFSHECsHT9rdQ-34" value="Sign up" style="rounded=1;html=1;shadow=0;dashed=0;whiteSpace=wrap;fontSize=10;fillColor=#E6E6E6;align=center;strokeColor=#E6E6E6;fontColor=#333333;" parent="XFyouCYtFSHECsHT9rdQ-2" vertex="1">
                    <mxGeometry x="99" y="3.12" width="56" height="16.88" as="geometry"/>
                </mxCell>
                <mxCell id="XFyouCYtFSHECsHT9rdQ-35" value="Log in" style="rounded=1;html=1;shadow=0;dashed=0;whiteSpace=wrap;fontSize=10;fillColor=#E6E6E6;align=center;strokeColor=#E6E6E6;fontColor=#333333;" parent="XFyouCYtFSHECsHT9rdQ-2" vertex="1">
                    <mxGeometry x="165" y="1.56" width="55" height="16.88" as="geometry"/>
                </mxCell>
                <mxCell id="XFyouCYtFSHECsHT9rdQ-33" value="List a product" style="rounded=1;html=1;shadow=0;dashed=0;whiteSpace=wrap;fontSize=10;fillColor=#666666;align=center;strokeColor=#999999;fontColor=#ffffff;" parent="XFyouCYtFSHECsHT9rdQ-2" vertex="1">
                    <mxGeometry x="59.75" y="275" width="105.5" height="35" as="geometry"/>
                </mxCell>
                <mxCell id="4" value="Product Categories" style="text;html=1;strokeColor=none;fillColor=none;align=center;verticalAlign=middle;whiteSpace=wrap;rounded=0;" vertex="1" parent="XFyouCYtFSHECsHT9rdQ-2">
                    <mxGeometry x="51.25" y="55" width="127.5" height="55" as="geometry"/>
                </mxCell>
                <mxCell id="45" style="edgeStyle=entityRelationEdgeStyle;rounded=0;orthogonalLoop=1;jettySize=auto;html=1;exitX=1;exitY=0.75;exitDx=0;exitDy=0;entryX=1;entryY=0.5;entryDx=0;entryDy=0;" edge="1" parent="1" source="XFyouCYtFSHECsHT9rdQ-38" target="21">
                    <mxGeometry relative="1" as="geometry"/>
                </mxCell>
                <mxCell id="XFyouCYtFSHECsHT9rdQ-38" value="" style="swimlane;startSize=0;" parent="1" vertex="1">
                    <mxGeometry x="690" y="60" width="200" height="360" as="geometry"/>
                </mxCell>
                <mxCell id="XFyouCYtFSHECsHT9rdQ-57" value="" style="rounded=0;whiteSpace=wrap;html=1;" parent="XFyouCYtFSHECsHT9rdQ-38" vertex="1">
                    <mxGeometry y="3.12" width="200" height="26.88" as="geometry"/>
                </mxCell>
                <mxCell id="XFyouCYtFSHECsHT9rdQ-82" value="Product Category" style="html=1;shadow=0;dashed=0;shape=mxgraph.bootstrap.rrect;rSize=5;fillColor=none;strokeColor=#999999;align=left;spacing=15;fontSize=14;fontColor=#6C767D;" parent="XFyouCYtFSHECsHT9rdQ-38" vertex="1">
                    <mxGeometry x="35" y="130" width="130" height="40" as="geometry"/>
                </mxCell>
                <mxCell id="XFyouCYtFSHECsHT9rdQ-81" value="Product Name" style="html=1;shadow=0;dashed=0;shape=mxgraph.bootstrap.rrect;rSize=5;fillColor=none;strokeColor=#999999;align=left;spacing=15;fontSize=14;fontColor=#6C767D;" parent="XFyouCYtFSHECsHT9rdQ-38" vertex="1">
                    <mxGeometry x="35" y="180" width="130" height="40" as="geometry"/>
                </mxCell>
                <mxCell id="XFyouCYtFSHECsHT9rdQ-83" value="Descriptions" style="html=1;shadow=0;dashed=0;shape=mxgraph.bootstrap.rrect;rSize=5;fillColor=none;strokeColor=#999999;align=left;spacing=15;fontSize=14;fontColor=#6C767D;" parent="XFyouCYtFSHECsHT9rdQ-38" vertex="1">
                    <mxGeometry x="35" y="230" width="130" height="40" as="geometry"/>
                </mxCell>
                <mxCell id="XFyouCYtFSHECsHT9rdQ-84" value="Post" style="rounded=1;whiteSpace=wrap;html=1;" parent="XFyouCYtFSHECsHT9rdQ-38" vertex="1">
                    <mxGeometry x="60" y="280" width="65" height="25" as="geometry"/>
                </mxCell>
                <mxCell id="XFyouCYtFSHECsHT9rdQ-152" value="" style="shape=image;html=1;verticalAlign=top;verticalLabelPosition=bottom;labelBackgroundColor=#ffffff;imageAspect=0;aspect=fixed;image=https://cdn4.iconfinder.com/data/icons/32x32-free-design-icons/32/Upload_image.png" parent="XFyouCYtFSHECsHT9rdQ-38" vertex="1">
                    <mxGeometry x="69.5" y="70" width="46" height="46" as="geometry"/>
                </mxCell>
                <mxCell id="19" value="Home" style="rounded=1;fillColor=#F1F2F4;strokeColor=none;html=1;fontColor=#596780;align=center;verticalAlign=middle;fontStyle=0;fontSize=12" vertex="1" parent="XFyouCYtFSHECsHT9rdQ-38">
                    <mxGeometry x="10" y="8.5" width="50" height="16.12" as="geometry"/>
                </mxCell>
                <mxCell id="20" value="List a product" style="text;html=1;strokeColor=none;fillColor=none;align=center;verticalAlign=middle;whiteSpace=wrap;rounded=0;" vertex="1" parent="XFyouCYtFSHECsHT9rdQ-38">
                    <mxGeometry x="52.5" y="40" width="80" height="20" as="geometry"/>
                </mxCell>
                <mxCell id="XFyouCYtFSHECsHT9rdQ-40" value="" style="swimlane;startSize=0;" parent="1" vertex="1">
                    <mxGeometry x="330" y="480" width="220" height="350" as="geometry"/>
                </mxCell>
                <mxCell id="XFyouCYtFSHECsHT9rdQ-109" value="Transaction history:&lt;br&gt;&lt;br&gt;Listed products&lt;br&gt;&lt;br&gt;&lt;br&gt;Requested products:&lt;br&gt;&lt;br&gt;&lt;div style=&quot;text-align: left&quot;&gt;&amp;nbsp; &amp;nbsp;&lt;/div&gt;&lt;div style=&quot;text-align: left&quot;&gt;&lt;br&gt;&lt;/div&gt;" style="rounded=0;whiteSpace=wrap;html=1;" parent="XFyouCYtFSHECsHT9rdQ-40" vertex="1">
                    <mxGeometry x="50" y="80" width="120" height="90" as="geometry"/>
                </mxCell>
                <mxCell id="XFyouCYtFSHECsHT9rdQ-110" value="List a new product" style="rounded=1;whiteSpace=wrap;html=1;" parent="XFyouCYtFSHECsHT9rdQ-40" vertex="1">
                    <mxGeometry x="50" y="230" width="120" height="40" as="geometry"/>
                </mxCell>
                <mxCell id="31" value="" style="rounded=0;whiteSpace=wrap;html=1;" vertex="1" parent="XFyouCYtFSHECsHT9rdQ-40">
                    <mxGeometry width="220" height="30" as="geometry"/>
                </mxCell>
                <mxCell id="30" value="Home" style="rounded=1;fillColor=#F1F2F4;strokeColor=none;html=1;fontColor=#596780;align=center;verticalAlign=middle;fontStyle=0;fontSize=12" vertex="1" parent="XFyouCYtFSHECsHT9rdQ-40">
                    <mxGeometry x="10" y="6.939999999999998" width="50" height="16.12" as="geometry"/>
                </mxCell>
                <mxCell id="59" value="" style="outlineConnect=0;fontColor=#232F3E;gradientColor=none;fillColor=#D05C17;strokeColor=none;dashed=0;verticalLabelPosition=bottom;verticalAlign=top;align=center;html=1;fontSize=12;fontStyle=0;aspect=fixed;pointerEvents=1;shape=mxgraph.aws4.container_registry_image;" vertex="1" parent="XFyouCYtFSHECsHT9rdQ-40">
                    <mxGeometry x="105" y="150" width="10" height="10" as="geometry"/>
                </mxCell>
                <mxCell id="XFyouCYtFSHECsHT9rdQ-118" value="" style="outlineConnect=0;fontColor=#232F3E;gradientColor=none;fillColor=#D05C17;strokeColor=none;dashed=0;verticalLabelPosition=bottom;verticalAlign=top;align=center;html=1;fontSize=12;fontStyle=0;aspect=fixed;pointerEvents=1;shape=mxgraph.aws4.container_registry_image;" parent="XFyouCYtFSHECsHT9rdQ-40" vertex="1">
                    <mxGeometry x="105" y="110" width="10" height="10" as="geometry"/>
                </mxCell>
                <mxCell id="40" style="edgeStyle=entityRelationEdgeStyle;rounded=0;orthogonalLoop=1;jettySize=auto;html=1;exitX=1;exitY=0.5;exitDx=0;exitDy=0;entryX=-0.008;entryY=0.529;entryDx=0;entryDy=0;entryPerimeter=0;" edge="1" parent="1" source="XFyouCYtFSHECsHT9rdQ-120" target="XFyouCYtFSHECsHT9rdQ-38">
                    <mxGeometry relative="1" as="geometry"/>
                </mxCell>
                <mxCell id="XFyouCYtFSHECsHT9rdQ-120" value="" style="swimlane;startSize=0;" parent="1" vertex="1">
                    <mxGeometry x="390" y="70" width="210" height="360" as="geometry"/>
                </mxCell>
                <mxCell id="XFyouCYtFSHECsHT9rdQ-121" value="" style="rounded=0;whiteSpace=wrap;html=1;" parent="XFyouCYtFSHECsHT9rdQ-120" vertex="1">
                    <mxGeometry y="-10" width="210" height="26.88" as="geometry"/>
                </mxCell>
                <mxCell id="XFyouCYtFSHECsHT9rdQ-122" value="full name" style="html=1;shadow=0;dashed=0;shape=mxgraph.bootstrap.rrect;rSize=5;fillColor=none;strokeColor=#999999;align=left;spacing=15;fontSize=14;fontColor=#6C767D;" parent="XFyouCYtFSHECsHT9rdQ-120" vertex="1">
                    <mxGeometry x="35" y="80" width="130" height="40" as="geometry"/>
                </mxCell>
                <mxCell id="XFyouCYtFSHECsHT9rdQ-123" value="email" style="html=1;shadow=0;dashed=0;shape=mxgraph.bootstrap.rrect;rSize=5;fillColor=none;strokeColor=#999999;align=left;spacing=15;fontSize=14;fontColor=#6C767D;" parent="XFyouCYtFSHECsHT9rdQ-120" vertex="1">
                    <mxGeometry x="35" y="130" width="130" height="40" as="geometry"/>
                </mxCell>
                <mxCell id="XFyouCYtFSHECsHT9rdQ-124" value="password" style="html=1;shadow=0;dashed=0;shape=mxgraph.bootstrap.rrect;rSize=5;fillColor=none;strokeColor=#999999;align=left;spacing=15;fontSize=14;fontColor=#6C767D;" parent="XFyouCYtFSHECsHT9rdQ-120" vertex="1">
                    <mxGeometry x="35" y="180" width="130" height="40" as="geometry"/>
                </mxCell>
                <mxCell id="XFyouCYtFSHECsHT9rdQ-125" value="confirm password" style="html=1;shadow=0;dashed=0;shape=mxgraph.bootstrap.rrect;rSize=5;fillColor=none;strokeColor=#999999;align=left;spacing=15;fontSize=14;fontColor=#6C767D;" parent="XFyouCYtFSHECsHT9rdQ-120" vertex="1">
                    <mxGeometry x="35" y="230" width="130" height="40" as="geometry"/>
                </mxCell>
                <mxCell id="XFyouCYtFSHECsHT9rdQ-126" value="sign up" style="rounded=1;whiteSpace=wrap;html=1;" parent="XFyouCYtFSHECsHT9rdQ-120" vertex="1">
                    <mxGeometry x="60" y="280" width="65" height="25" as="geometry"/>
                </mxCell>
                <mxCell id="6" value="Sign up" style="text;html=1;strokeColor=none;fillColor=none;align=center;verticalAlign=middle;whiteSpace=wrap;rounded=0;" vertex="1" parent="XFyouCYtFSHECsHT9rdQ-120">
                    <mxGeometry x="70" y="40" width="50" height="20" as="geometry"/>
                </mxCell>
                <mxCell id="15" value="Home" style="rounded=1;fillColor=#F1F2F4;strokeColor=none;html=1;fontColor=#596780;align=center;verticalAlign=middle;fontStyle=0;fontSize=12" vertex="1" parent="XFyouCYtFSHECsHT9rdQ-120">
                    <mxGeometry x="10" y="-4.6200000000000045" width="50" height="16.12" as="geometry"/>
                </mxCell>
                <mxCell id="50" style="edgeStyle=entityRelationEdgeStyle;rounded=0;orthogonalLoop=1;jettySize=auto;html=1;exitX=0;exitY=0.25;exitDx=0;exitDy=0;entryX=1.011;entryY=0.527;entryDx=0;entryDy=0;entryPerimeter=0;" edge="1" parent="1" source="XFyouCYtFSHECsHT9rdQ-130" target="XFyouCYtFSHECsHT9rdQ-40">
                    <mxGeometry relative="1" as="geometry"/>
                </mxCell>
                <mxCell id="XFyouCYtFSHECsHT9rdQ-130" value="" style="swimlane;startSize=0;" parent="1" vertex="1">
                    <mxGeometry x="670" y="480" width="234.08999999999997" height="350" as="geometry"/>
                </mxCell>
                <mxCell id="XFyouCYtFSHECsHT9rdQ-137" value="" style="outlineConnect=0;fontColor=#232F3E;gradientColor=none;fillColor=#D05C17;strokeColor=none;dashed=0;verticalLabelPosition=bottom;verticalAlign=top;align=center;html=1;fontSize=12;fontStyle=0;aspect=fixed;pointerEvents=1;shape=mxgraph.aws4.container_registry_image;" parent="XFyouCYtFSHECsHT9rdQ-130" vertex="1">
                    <mxGeometry x="87.25" y="89.5" width="40.5" height="40.5" as="geometry"/>
                </mxCell>
                <mxCell id="XFyouCYtFSHECsHT9rdQ-146" value="" style="outlineConnect=0;fontColor=#232F3E;gradientColor=none;fillColor=#D05C17;strokeColor=none;dashed=0;verticalLabelPosition=bottom;verticalAlign=top;align=center;html=1;fontSize=12;fontStyle=0;aspect=fixed;pointerEvents=1;shape=mxgraph.aws4.container_registry_image;" parent="XFyouCYtFSHECsHT9rdQ-130" vertex="1">
                    <mxGeometry x="82.25" y="244.5" width="45.5" height="45.5" as="geometry"/>
                </mxCell>
                <mxCell id="21" value="" style="rounded=0;whiteSpace=wrap;html=1;" vertex="1" parent="XFyouCYtFSHECsHT9rdQ-130">
                    <mxGeometry x="0.5" width="219.5" height="30" as="geometry"/>
                </mxCell>
                <mxCell id="22" value="Home" style="rounded=1;fillColor=#F1F2F4;strokeColor=none;html=1;fontColor=#596780;align=center;verticalAlign=middle;fontStyle=0;fontSize=12" vertex="1" parent="XFyouCYtFSHECsHT9rdQ-130">
                    <mxGeometry x="15" y="6.939999999999998" width="50" height="16.12" as="geometry"/>
                </mxCell>
                <mxCell id="24" value="All listing for (electronics) Category&lt;br&gt;&amp;nbsp;" style="text;html=1;strokeColor=none;fillColor=none;align=center;verticalAlign=middle;whiteSpace=wrap;rounded=0;" vertex="1" parent="XFyouCYtFSHECsHT9rdQ-130">
                    <mxGeometry x="40" y="50" width="160" height="30" as="geometry"/>
                </mxCell>
                <mxCell id="27" value="Request this item" style="text;html=1;strokeColor=none;fillColor=none;align=center;verticalAlign=middle;whiteSpace=wrap;rounded=0;" vertex="1" parent="XFyouCYtFSHECsHT9rdQ-130">
                    <mxGeometry x="54.61" y="150" width="111.28" height="10" as="geometry"/>
                </mxCell>
                <mxCell id="28" value="Request item" style="text;html=1;strokeColor=none;fillColor=none;align=center;verticalAlign=middle;whiteSpace=wrap;rounded=0;" vertex="1" parent="XFyouCYtFSHECsHT9rdQ-130">
                    <mxGeometry x="65.00000000000003" y="290" width="82.56" height="20" as="geometry"/>
                </mxCell>
                <mxCell id="60" value="X number of&amp;nbsp; people request item" style="text;html=1;strokeColor=none;fillColor=none;align=center;verticalAlign=middle;whiteSpace=wrap;rounded=0;" vertex="1" parent="XFyouCYtFSHECsHT9rdQ-130">
                    <mxGeometry x="16.279999999999998" y="160" width="187.95" height="50" as="geometry"/>
                </mxCell>
                <mxCell id="63" value="Y number of&amp;nbsp; people request item" style="text;html=1;strokeColor=none;fillColor=none;align=center;verticalAlign=middle;whiteSpace=wrap;rounded=0;" vertex="1" parent="XFyouCYtFSHECsHT9rdQ-130">
                    <mxGeometry x="11.029999999999973" y="300" width="187.95" height="50" as="geometry"/>
                </mxCell>
                <mxCell id="XFyouCYtFSHECsHT9rdQ-166" style="edgeStyle=orthogonalEdgeStyle;rounded=0;orthogonalLoop=1;jettySize=auto;html=1;exitX=0.6;exitY=0.5;exitDx=0;exitDy=0;exitPerimeter=0;entryX=0.5;entryY=0;entryDx=0;entryDy=0;entryPerimeter=0;" parent="1" edge="1">
                    <mxGeometry relative="1" as="geometry">
                        <mxPoint x="253.3320000000001" y="500" as="sourcePoint"/>
                        <mxPoint x="251.1099999999999" y="490" as="targetPoint"/>
                    </mxGeometry>
                </mxCell>
                <mxCell id="66" style="edgeStyle=entityRelationEdgeStyle;rounded=0;orthogonalLoop=1;jettySize=auto;html=1;exitX=1;exitY=0.5;exitDx=0;exitDy=0;entryX=0;entryY=0.472;entryDx=0;entryDy=0;entryPerimeter=0;" edge="1" parent="1" source="XFyouCYtFSHECsHT9rdQ-33" target="XFyouCYtFSHECsHT9rdQ-120">
                    <mxGeometry relative="1" as="geometry"/>
                </mxCell>
            </root>
        </mxGraphModel>
    </diagram>
</mxfile>